<svg xmlns="http://www.w3.org/2000/svg" viewBox="0 0 64 64" role="img" aria-label="Proceedings Chair Buddy icon">
  <defs>
    <linearGradient id="paper" x1="14" y1="8" x2="48" y2="56" gradientUnits="userSpaceOnUse">
      <stop offset="0" stop-color="#ffffff"/>
      <stop offset="1" stop-color="#eef4ff"/>
    </linearGradient>
    <linearGradient id="badge" x1="24" y1="26" x2="52" y2="54" gradientUnits="userSpaceOnUse">
      <stop offset="0" stop-color="#2f6fd0"/>
      <stop offset="1" stop-color="#137a4b"/>
    </linearGradient>
  </defs>
  <rect width="64" height="64" rx="16" fill="#f6f7f9"/>
  <path d="M18 10h22l10 10v30a4 4 0 0 1-4 4H18a4 4 0 0 1-4-4V14a4 4 0 0 1 4-4Z" fill="url(#paper)" stroke="#275db3" stroke-width="2.5"/>
  <path d="M40 10v10h10" fill="none" stroke="#275db3" stroke-width="2.5" stroke-linejoin="round"/>
  <path d="M23 25h18M23 33h14M23 41h10" stroke="#68707d" stroke-width="2.8" stroke-linecap="round"/>
  <circle cx="43" cy="43" r="13" fill="url(#badge)" stroke="#ffffff" stroke-width="3"/>
  <path d="m36.5 42.5 4.3 4.3 8.2-9" fill="none" stroke="#ffffff" stroke-width="3.5" stroke-linecap="round" stroke-linejoin="round"/>
</svg>
